<svg width="252" height="277" viewBox="0 0 252 277" fill="none" xmlns="http://www.w3.org/2000/svg">
<path d="M113.051 238.484L45.8986 209.683L49.9108 200.328C54.8147 188.894 60.6859 179.875 67.5245 173.271C74.4746 166.407 81.8341 161.103 89.6031 157.359C97.3721 153.615 105.197 150.818 113.078 148.968C121.331 146.969 129.008 144.878 136.108 142.693C143.32 140.248 149.732 137.153 155.345 133.407C160.957 129.661 165.268 124.28 168.277 117.264C170.618 111.807 171.323 106.571 170.392 101.557C169.832 96.3944 167.842 91.695 164.42 87.4585C161.37 83.0738 156.982 79.6535 151.256 77.1976C141.886 73.1788 132.684 73.078 123.651 76.8953C114.99 80.5643 106.348 87.7799 97.7262 98.5419L28.6215 68.9035C44.8953 37.426 66.2474 16.741 92.6778 6.84836C119.22 -3.3041 148.368 -1.57074 180.122 12.0484C200.684 20.8674 216.842 32.4121 228.595 46.6825C240.719 60.8047 247.937 76.668 250.248 94.2726C252.67 111.617 249.869 129.644 241.844 148.354C236.494 160.827 230.047 170.83 222.503 178.362C214.958 185.894 206.874 191.811 198.25 196.111C189.737 200.151 180.927 203.449 171.819 206.004C163.083 208.41 154.849 210.724 147.117 212.945C139.384 215.167 132.582 218.095 126.709 221.729C120.947 225.103 116.729 229.909 114.054 236.146L113.051 238.484ZM35.1194 332.892C19.2422 326.082 8.75513 317.123 3.65817 306.015C-1.43877 294.907 -0.922346 282.207 5.20744 267.915C11.3372 253.622 20.1826 244.495 31.7437 240.531C43.4162 236.308 57.1911 237.601 73.0683 244.41C88.9455 251.22 99.3768 260.309 104.362 271.676C109.72 282.896 109.333 295.652 103.203 309.944C97.0737 324.236 88.0981 333.309 76.2768 337.161C64.7157 341.124 50.9966 339.701 35.1194 332.892Z" fill="#7FFC59" fill-opacity="0.7"/>
</svg>
