<svg width="34" height="34" viewBox="0 0 34 34" fill="none" xmlns="http://www.w3.org/2000/svg">
<path d="M26.9167 5.66675C27.6991 5.66675 28.3333 6.30101 28.3333 7.08342V9.91675C28.3333 10.6992 27.6991 11.3334 26.9167 11.3334C26.1343 11.3334 25.5 10.6992 25.5 9.91675V7.08342C25.5 6.30101 26.1343 5.66675 26.9167 5.66675Z" fill="#7FFC59"/>
<path d="M18.4167 24.0834C18.4167 23.301 17.7824 22.6667 17 22.6667C16.2176 22.6667 15.5833 23.301 15.5833 24.0834V26.9167C15.5833 27.6992 16.2176 28.3334 17 28.3334C17.7824 28.3334 18.4167 27.6992 18.4167 26.9167L18.4167 24.0834Z" fill="#7FFC59"/>
<path d="M17 5.66675C17.7824 5.66675 18.4167 6.30101 18.4167 7.08342V18.4167C18.4167 19.1992 17.7824 19.8334 17 19.8334C16.2176 19.8334 15.5833 19.1992 15.5833 18.4167V7.08342C15.5833 6.30101 16.2176 5.66675 17 5.66675Z" fill="#7FFC59"/>
<path d="M8.49999 7.08342C8.49999 6.30101 7.86573 5.66675 7.08332 5.66675C6.30092 5.66675 5.66666 6.30101 5.66666 7.08342L5.66666 12.7501C5.66666 13.5325 6.30092 14.1667 7.08332 14.1667C7.86573 14.1667 8.49999 13.5325 8.49999 12.7501L8.49999 7.08342Z" fill="#7FFC59"/>
<path d="M8.49999 18.4167C8.49999 17.6343 7.86573 17.0001 7.08332 17.0001C6.30092 17.0001 5.66666 17.6343 5.66666 18.4167L5.66666 26.9167C5.66666 27.6992 6.30092 28.3334 7.08332 28.3334C7.86573 28.3334 8.49999 27.6992 8.49999 26.9167L8.49999 18.4167Z" fill="#7FFC59"/>
<path d="M28.3333 15.5834C28.3333 14.801 27.6991 14.1667 26.9167 14.1667C26.1343 14.1667 25.5 14.801 25.5 15.5834L25.5 26.9167C25.5 27.6992 26.1343 28.3334 26.9167 28.3334C27.6991 28.3334 28.3333 27.6992 28.3333 26.9167V15.5834Z" fill="#7FFC59"/>
<path fill-rule="evenodd" clip-rule="evenodd" d="M26.9167 17C24.5695 17 22.6667 15.0972 22.6667 12.75C22.6667 10.4028 24.5695 8.5 26.9167 8.5C29.2639 8.5 31.1667 10.4028 31.1667 12.75C31.1667 15.0972 29.2639 17 26.9167 17ZM26.9167 14.1667C26.1343 14.1667 25.5 13.5324 25.5 12.75C25.5 11.9676 26.1343 11.3333 26.9167 11.3333C27.6991 11.3333 28.3333 11.9676 28.3333 12.75C28.3333 13.5324 27.6991 14.1667 26.9167 14.1667Z" fill="#7FFC59"/>
<path fill-rule="evenodd" clip-rule="evenodd" d="M12.75 21.25C12.75 23.5972 14.6528 25.5 17 25.5C19.3472 25.5 21.25 23.5972 21.25 21.25C21.25 18.9028 19.3472 17 17 17C14.6528 17 12.75 18.9028 12.75 21.25ZM15.5833 21.25C15.5833 22.0324 16.2176 22.6667 17 22.6667C17.7824 22.6667 18.4167 22.0324 18.4167 21.25C18.4167 20.4676 17.7824 19.8333 17 19.8333C16.2176 19.8333 15.5833 20.4676 15.5833 21.25Z" fill="#7FFC59"/>
<path fill-rule="evenodd" clip-rule="evenodd" d="M2.83334 15.5833C2.83334 17.9305 4.73613 19.8333 7.08334 19.8333C9.43055 19.8333 11.3333 17.9305 11.3333 15.5833C11.3333 13.2361 9.43055 11.3333 7.08334 11.3333C4.73613 11.3333 2.83334 13.2361 2.83334 15.5833ZM5.66668 15.5833C5.66668 16.3657 6.30094 17 7.08334 17C7.86575 17 8.50001 16.3657 8.50001 15.5833C8.50001 14.8009 7.86575 14.1667 7.08334 14.1667C6.30094 14.1667 5.66668 14.8009 5.66668 15.5833Z" fill="#7FFC59"/>
</svg>
