<svg width="19" height="19" viewBox="0 0 19 19" fill="none" xmlns="http://www.w3.org/2000/svg">
<path d="M10.2865 1.31428C11.0407 1.31428 11.3746 1.31494 11.6499 1.33959C14.7106 1.61363 17.1364 4.03936 17.4104 7.10014C17.4351 7.37544 17.4357 7.70927 17.4357 8.46354V9.33092C17.4357 9.69385 17.7299 9.98806 18.0929 9.98806C18.4558 9.98806 18.75 9.69385 18.75 9.33092V8.41935C18.75 7.72112 18.75 7.32432 18.7195 6.98294C18.3887 3.28889 15.4611 0.361283 11.7671 0.0305464C11.4257 -2.02566e-05 11.0289 -1.272e-05 10.3306 5.4528e-07H9.41908C9.05615 5.4528e-07 8.76194 0.294213 8.76194 0.65714C8.76194 1.02007 9.05615 1.31428 9.41908 1.31428L10.2865 1.31428Z" fill="#7FFC59"/>
<path d="M5.13605 2.43167C4.21422 1.58464 2.7973 1.58464 1.87547 2.43167C1.83772 2.46636 1.79743 2.50667 1.7451 2.55901L0.958716 3.34539C0.167422 4.13668 -0.164756 5.2774 0.0780017 6.36981C1.45534 12.5678 6.29585 17.4083 12.4939 18.7857C13.5863 19.0284 14.727 18.6962 15.5183 17.905L16.3046 17.1187C16.357 17.0663 16.3973 17.026 16.432 16.9882C17.279 16.0664 17.279 14.6494 16.432 13.7276C16.3973 13.6899 16.357 13.6495 16.3046 13.5972L15.0172 12.3098C14.1234 11.416 12.7736 11.1604 11.6149 11.6655C10.9516 11.9546 10.1788 11.8083 9.66712 11.2966L7.56707 9.19655C7.05538 8.68486 6.90903 7.91211 7.19819 7.24874C7.70328 6.09002 7.44765 4.74024 6.55385 3.84644L5.26644 2.55903C5.21411 2.50668 5.1738 2.46637 5.13605 2.43167Z" fill="#7FFC59"/>
<path d="M10.0385 3.09778C9.67561 3.09778 9.3814 3.39199 9.3814 3.75492C9.3814 4.11785 9.67561 4.41206 10.0385 4.41206H10.5342C10.6106 4.41206 10.6419 4.41207 10.6674 4.41244C12.6822 4.4413 14.3086 6.06766 14.3375 8.08251C14.3378 8.10799 14.3378 8.13928 14.3378 8.21572V8.71137C14.3378 9.07429 14.6321 9.3685 14.995 9.3685C15.3579 9.3685 15.6521 9.07429 15.6521 8.71137V8.20936C15.6521 8.14127 15.6521 8.09984 15.6516 8.06369C15.6126 5.33772 13.4122 3.13734 10.6862 3.0983C10.6501 3.09778 10.6086 3.09778 10.5405 3.09778H10.0385Z" fill="#7FFC59"/>
</svg>
