<svg width="34" height="34" viewBox="0 0 34 34" fill="none" xmlns="http://www.w3.org/2000/svg">
<path fill-rule="evenodd" clip-rule="evenodd" d="M17 28.3333C23.2592 28.3333 28.3333 23.2591 28.3333 16.9999C28.3333 10.7407 23.2592 5.66659 17 5.66659C10.7408 5.66659 5.66668 10.7407 5.66668 16.9999C5.66668 23.2591 10.7408 28.3333 17 28.3333ZM17 31.1666C24.824 31.1666 31.1667 24.824 31.1667 16.9999C31.1667 9.17588 24.824 2.83325 17 2.83325C9.17598 2.83325 2.83334 9.17588 2.83334 16.9999C2.83334 24.824 9.17598 31.1666 17 31.1666Z" fill="#7FFC59"/>
<path fill-rule="evenodd" clip-rule="evenodd" d="M15.5833 9.91667C15.5833 9.13426 16.2176 8.5 17 8.5C17.7824 8.5 18.4167 9.13426 18.4167 9.91667C20.7639 9.91667 22.6667 11.8195 22.6667 14.1667C22.6667 14.9491 22.0324 15.5833 21.25 15.5833C20.4676 15.5833 19.8333 14.9491 19.8333 14.1667C19.8333 13.3843 19.1991 12.75 18.4167 12.75H17H15.2199C14.6382 12.75 14.1667 13.2215 14.1667 13.8032C14.1667 14.2565 14.4568 14.6589 14.8868 14.8023L20.0092 16.5098C21.5962 17.0388 22.6667 18.524 22.6667 20.1968C22.6667 22.3433 20.9266 24.0833 18.7802 24.0833H18.4167C18.4167 24.8657 17.7824 25.5 17 25.5C16.2176 25.5 15.5833 24.8657 15.5833 24.0833C13.2361 24.0833 11.3333 22.1805 11.3333 19.8333C11.3333 19.0509 11.9676 18.4167 12.75 18.4167C13.5324 18.4167 14.1667 19.0509 14.1667 19.8333C14.1667 20.6157 14.8009 21.25 15.5833 21.25H17H18.7802C19.3618 21.25 19.8333 20.7785 19.8333 20.1968C19.8333 19.7435 19.5433 19.3411 19.1132 19.1977L13.9908 17.4902C12.4038 16.9612 11.3333 15.476 11.3333 13.8032C11.3333 11.6567 13.0734 9.91667 15.2199 9.91667L15.5833 9.91667Z" fill="#7FFC59"/>
</svg>
