<svg width="22" height="22" viewBox="0 0 22 22" fill="none" xmlns="http://www.w3.org/2000/svg">
<path d="M13.0665 8.60725C13.2719 8.52264 13.4774 8.72812 13.3928 8.93361L12.2906 11.6105C12.1636 11.9187 11.9189 12.1635 11.6107 12.2904L8.93378 13.3926C8.7283 13.4772 8.52281 13.2718 8.60742 13.0663L9.70966 10.3894C9.83658 10.0812 10.0813 9.83641 10.3896 9.7095L13.0665 8.60725Z" fill="#7FFC59"/>
<path fill-rule="evenodd" clip-rule="evenodd" d="M11.2853 0.0305112C11.0953 0.0210796 10.905 0.0210796 10.715 0.0305112C9.98167 0.0669215 9.3065 0.280012 8.55385 0.629287C7.82112 0.969313 6.96969 1.46089 5.89252 2.0828L5.83152 2.11803C4.75434 2.73993 3.9029 3.2315 3.24207 3.69604C2.56326 4.17323 2.04113 4.65139 1.64292 5.26829C1.53977 5.4281 1.44461 5.59292 1.35779 5.76215C1.02265 6.41546 0.869604 7.10672 0.795757 7.93318C0.723866 8.73775 0.723871 9.7209 0.723877 10.9647V11.0352C0.723871 12.279 0.723866 13.2621 0.795757 14.0667C0.869604 14.8931 1.02265 15.5844 1.35779 16.2377C1.44461 16.407 1.53977 16.5718 1.64292 16.7316C2.04113 17.3485 2.56326 17.8266 3.24207 18.3038C3.90286 18.7683 4.75423 19.2599 5.83131 19.8817L5.8925 19.9171C6.96968 20.539 7.82112 21.0306 8.55385 21.3706C9.3065 21.7199 9.98167 21.9329 10.715 21.9694C10.905 21.9788 11.0953 21.9788 11.2853 21.9694C12.0186 21.9329 12.6938 21.7199 13.4465 21.3706C14.1792 21.0306 15.0306 20.539 16.1078 19.9171L16.1688 19.8818C17.246 19.2599 18.0974 18.7684 18.7582 18.3038C19.4371 17.8266 19.9592 17.3485 20.3574 16.7316C20.4605 16.5718 20.5557 16.407 20.6425 16.2377C20.9777 15.5844 21.1307 14.8931 21.2046 14.0667C21.2764 13.2621 21.2764 12.279 21.2764 11.0352V10.9647C21.2764 9.72094 21.2764 8.73774 21.2046 7.93318C21.1307 7.10672 20.9777 6.41546 20.6425 5.76215C20.5557 5.59292 20.4605 5.42809 20.3574 5.26829C19.9592 4.65139 19.4371 4.17323 18.7582 3.69604C18.0974 3.2315 17.246 2.73993 16.1688 2.11803L16.1078 2.0828C15.0306 1.46089 14.1792 0.969313 13.4465 0.629287C12.6938 0.280012 12.0186 0.0669215 11.2853 0.0305112ZM14.7798 9.50474C15.3721 8.06635 13.9337 6.62796 12.4953 7.22024L9.81845 8.32248C9.14035 8.6017 8.60186 9.14018 8.32265 9.81828L7.2204 12.4952C6.62813 13.9335 8.06651 15.3719 9.5049 14.7797L12.1818 13.6774C12.8599 13.3982 13.3984 12.8597 13.6776 12.1816L14.7798 9.50474Z" fill="#7FFC59"/>
</svg>
