<svg width="34" height="34" viewBox="0 0 34 34" fill="none" xmlns="http://www.w3.org/2000/svg">
<path fill-rule="evenodd" clip-rule="evenodd" d="M12.9787 9.91675H21.0213C21.7681 9.91672 22.4123 9.9167 22.943 9.96006C23.503 10.0058 24.0601 10.1068 24.5961 10.38C25.3958 10.7874 26.046 11.4376 26.4535 12.2373C26.7266 12.7733 26.8276 13.3304 26.8734 13.8905C26.9167 14.4211 26.9167 15.0654 26.9167 15.8122V18.188C26.9167 18.9348 26.9167 19.5791 26.8734 20.1097C26.8276 20.6698 26.7266 21.2268 26.4535 21.7629C26.046 22.5626 25.3958 23.2127 24.5961 23.6202C24.0601 23.8933 23.503 23.9944 22.943 24.0401C22.4123 24.0835 21.7681 24.0834 21.0213 24.0834H12.9788C12.232 24.0834 11.5877 24.0835 11.0571 24.0401C10.497 23.9944 9.93992 23.8933 9.40389 23.6202C8.6042 23.2127 7.95403 22.5626 7.54657 21.7629C7.27344 21.2268 7.17241 20.6698 7.12665 20.1097C7.0833 19.5791 7.08332 18.9348 7.08334 18.188V15.8121C7.08332 15.0654 7.0833 14.4211 7.12665 13.8905C7.17241 13.3304 7.27344 12.7733 7.54657 12.2373C7.95403 11.4376 8.6042 10.7874 9.40389 10.38C9.93992 10.1068 10.497 10.0058 11.0571 9.96006C11.5877 9.9167 12.2319 9.91672 12.9787 9.91675ZM11.2878 12.784C10.9029 12.8154 10.7602 12.8688 10.6902 12.9045C10.4236 13.0403 10.2069 13.257 10.0711 13.5236C10.0354 13.5936 9.98202 13.7363 9.95058 14.1212C9.91778 14.5226 9.91668 15.05 9.91668 15.8668V18.1334C9.91668 18.9502 9.91778 19.4776 9.95058 19.879C9.98202 20.2638 10.0354 20.4065 10.0711 20.4766C10.2069 20.7431 10.4236 20.9599 10.6902 21.0957C10.7602 21.1314 10.9029 21.1847 11.2878 21.2162C11.6892 21.249 12.2166 21.2501 13.0333 21.2501H20.9667C21.7835 21.2501 22.3108 21.249 22.7122 21.2162C23.0971 21.1847 23.2398 21.1314 23.3098 21.0957C23.5764 20.9599 23.7931 20.7431 23.9289 20.4766C23.9646 20.4065 24.018 20.2638 24.0494 19.879C24.0822 19.4776 24.0833 18.9502 24.0833 18.1334V15.8668C24.0833 15.05 24.0822 14.5226 24.0494 14.1212C24.018 13.7363 23.9646 13.5936 23.9289 13.5236C23.7931 13.257 23.5764 13.0403 23.3098 12.9045C23.2398 12.8688 23.0971 12.8154 22.7122 12.784C22.3108 12.7512 21.7835 12.7501 20.9667 12.7501H13.0333C12.2166 12.7501 11.6892 12.7512 11.2878 12.784Z" fill="#7FFC59"/>
<path fill-rule="evenodd" clip-rule="evenodd" d="M5.66667 26.9167C4.88426 26.9167 4.25 27.5509 4.25 28.3333C4.25 29.1157 4.88426 29.75 5.66667 29.75H28.3333C29.1157 29.75 29.75 29.1157 29.75 28.3333C29.75 27.5509 29.1157 26.9167 28.3333 26.9167H5.66667ZM5.66667 4.25C4.88426 4.25 4.25 4.88426 4.25 5.66667C4.25 6.44907 4.88426 7.08333 5.66667 7.08333H28.3333C29.1157 7.08333 29.75 6.44907 29.75 5.66667C29.75 4.88426 29.1157 4.25 28.3333 4.25H5.66667Z" fill="#7FFC59"/>
</svg>
