<svg width="45" height="45" viewBox="0 0 45 45" fill="none" xmlns="http://www.w3.org/2000/svg">
<rect width="45" height="45" rx="22.5" fill="#7FFC59"/>
<path d="M28.5327 21.528C28.8243 21.2338 28.8222 20.7589 28.528 20.4673C28.2338 20.1757 27.7589 20.1778 27.4673 20.472L25.72 22.235C25.0109 22.9505 24.5228 23.4413 24.1093 23.7734C23.7076 24.096 23.4496 24.2067 23.2185 24.2361C23.0734 24.2546 22.9266 24.2546 22.7815 24.2361C22.5504 24.2067 22.2924 24.096 21.8907 23.7734C21.4772 23.4413 20.9891 22.9505 20.28 22.235L18.5327 20.472C18.2411 20.1778 17.7662 20.1757 17.472 20.4673C17.1778 20.7589 17.1757 21.2338 17.4673 21.528L19.2461 23.3227C19.916 23.9987 20.4636 24.5511 20.9515 24.9429C21.4588 25.3504 21.9737 25.6453 22.5918 25.7241C22.8629 25.7586 23.1371 25.7586 23.4082 25.7241C24.0263 25.6453 24.5412 25.3504 25.0485 24.9429C25.5364 24.5511 26.084 23.9987 26.7539 23.3227L28.5327 21.528Z" fill="#FAFAFA"/>
</svg>
