<svg width="50" height="50" viewBox="0 0 50 50" fill="none" xmlns="http://www.w3.org/2000/svg">
<rect width="50" height="50" rx="25" fill="#7FFC59" fill-opacity="0.1"/>
<path d="M25 8.75C16.0256 8.75 8.75 16.0256 8.75 25C8.75 33.9744 16.0256 41.25 25 41.25C33.9744 41.25 41.25 33.9744 41.25 25C41.25 16.0256 33.9744 8.75 25 8.75ZM20.625 32.5H17.5V21.25H20.625V32.5ZM19.0531 20H19.0356C18.1031 20 17.5 19.305 17.5 18.4369C17.5 17.55 18.1219 16.875 19.0712 16.875C20.0219 16.875 20.6075 17.55 20.625 18.4369C20.625 19.3044 20.0219 20 19.0531 20ZM32.5 32.5H29.375V26.875C29.375 25 28.4713 24.375 27.5 24.375C26.5969 24.375 25.625 25 25.625 26.875V32.5H22.5V21.25H25.625V23.125C25.8394 22.5119 26.865 21.25 28.75 21.25C31.25 21.25 32.5 23.125 32.5 26.25V32.5Z" fill="#7FFC59"/>
</svg>
