<svg width="45" height="45" viewBox="0 0 45 45" fill="none" xmlns="http://www.w3.org/2000/svg">
<g opacity="0.3">
<rect width="45" height="45" rx="22.5" fill="#7FFC59"/>
<path d="M17.4673 21.528C17.1757 21.2338 17.1778 20.7589 17.472 20.4673C17.7662 20.1757 18.2411 20.1778 18.5327 20.472L20.28 22.235C20.9891 22.9505 21.4772 23.4413 21.8907 23.7734C22.2924 24.096 22.5504 24.2067 22.7815 24.2361C22.9266 24.2546 23.0734 24.2546 23.2185 24.2361C23.4496 24.2067 23.7076 24.096 24.1093 23.7734C24.5228 23.4413 25.0109 22.9505 25.72 22.235L27.4673 20.472C27.7589 20.1778 28.2338 20.1757 28.528 20.4673C28.8222 20.7589 28.8243 21.2338 28.5327 21.528L26.7539 23.3227C26.084 23.9987 25.5364 24.5511 25.0485 24.9429C24.5412 25.3504 24.0263 25.6453 23.4082 25.7241C23.1371 25.7586 22.8629 25.7586 22.5918 25.7241C21.9737 25.6453 21.4588 25.3504 20.9515 24.9429C20.4636 24.5511 19.916 23.9987 19.2461 23.3227L17.4673 21.528Z" fill="#FAFAFA"/>
</g>
</svg>
